<?xml version="1.0" encoding="UTF-8" standalone="no"?>
<!-- Generator: Adobe Illustrator 26.2.1, SVG Export Plug-In . SVG Version: 6.00 Build 0)  -->

<svg
   version="1.1"
   id="Layer_1"
   x="0px"
   y="0px"
   viewBox="0 0 1000 1000"
   style="enable-background:new 0 0 1000 1000;"
   xml:space="preserve"
   sodipodi:docname="Biáng_(regular_script).svg"
   inkscape:version="1.1 (c68e22c387, 2021-05-23)"
   xmlns:inkscape="http://www.inkscape.org/namespaces/inkscape"
   xmlns:sodipodi="http://sodipodi.sourceforge.net/DTD/sodipodi-0.dtd"
   xmlns="http://www.w3.org/2000/svg"
   xmlns:svg="http://www.w3.org/2000/svg"><defs
   id="defs836" /><sodipodi:namedview
   id="namedview834"
   pagecolor="#ffffff"
   bordercolor="#666666"
   borderopacity="1.0"
   inkscape:pageshadow="2"
   inkscape:pageopacity="0.0"
   inkscape:pagecheckerboard="0"
   showgrid="false"
   inkscape:zoom="0.56992807"
   inkscape:cx="494.79929"
   inkscape:cy="626.39484"
   inkscape:window-width="1920"
   inkscape:window-height="1017"
   inkscape:window-x="-8"
   inkscape:window-y="-8"
   inkscape:window-maximized="1"
   inkscape:current-layer="Layer_1" />
<path
   d="m 600.94034,641.35668 c 2.1,-16.5 -20.6,-28.8 -26.8,-28.8 l -1,1 c 0,1 2.1,7.2 6.2,18.5 9.3,22.7 20.6,18.6 21.6,9.3 z m -105,-41.1 c -3.1,0 -4.1,2.1 -5.1,5.1 -1,9.3 -4.1,15.4 -13.4,23.7 -3.1,3.1 -6.2,5.1 -5.1,9.3 1,2.1 5.1,0 10.3,-3.1 11.3,-7.2 17.5,-10.3 25.7,-12.3 2.1,-1 4.1,-2.1 4.1,-4.1 0,-3.1 -4.1,-9.3 -8.2,-13.4 -3.1,-3.2 -7.2,-5.2 -8.3,-5.2 z m 118.4,42.2 c 1,2.1 4.1,2.1 5.1,2.1 11.3,0 12.3,-22.6 -3.1,-31.9 -15.4,-12.3 -18.5,-10.3 -18.5,-6.2 0,1 11.3,27.7 16.5,36 z m -40.1,5.1 c 0,-7.2 -2.1,-14.4 -10.3,-19.6 -14.4,-9.3 -18.5,-7.2 -18.5,-3.1 0,5.1 2.1,11.3 7.2,20.6 10.2,20.6 21.6,19.6 21.6,2.1 z m 203.7,-82.3 c -3.1,0 -4.1,2.1 -5.1,5.1 -3.1,11.3 -8.2,21.6 -17.5,31.9 -1,1 -1,4.1 0,5.1 1,1 3.1,1 5.1,0 11.3,-8.2 18.5,-12.3 28.8,-20.6 3.1,-2.1 7.2,-2.1 7.2,-4.1 0,-3.1 -4.1,-8.2 -9.3,-12.3 -4.1,-3.1 -8.2,-5.1 -9.2,-5.1 z m -56.6,-36 c 10.3,-1 21.6,-4.1 31.9,-6.2 13.4,-2.1 20.6,-4.1 20.6,-8.2 0,-5.1 -6.2,-9.3 -12.3,-9.3 -8.2,0 -16.5,4.1 -23.7,6.2 -7.2,3.1 -16.5,5.1 -24.7,6.2 -5.1,1 -7.2,2.1 -7.2,4.1 0,3.1 8.2,8.2 15.4,7.2 z m -267.5,33.9 c 11.3,-3.1 23.7,-6.2 34,-8.2 12.3,-3.1 20.6,-4.1 20.6,-7.2 0,-4.1 -8.2,-10.3 -12.3,-9.3 -6.2,1 -13.4,3.1 -19.6,5.1 -7.2,2.1 -17.5,4.1 -24.7,5.1 -6.2,1 -13.4,1 -13.4,4.1 -0.1,5.3 9.2,11.5 15.4,10.4 z m 256.2,-75.1 c -5.1,1 -7.2,3.1 -7.2,5.1 0,3.1 8.2,8.2 15.4,7.2 14.4,-3.1 28.8,-5.1 42.2,-8.2 10.3,-2.1 15.4,-5.1 15.4,-8.2 0,-3.1 -10.3,-8.2 -14.4,-8.2 -4.1,0 -8.2,2.1 -15.4,4.1 -9.3,3.1 -22.6,6.2 -36,8.2 z m -262.4,30.9 c -8.2,1 -13.4,0 -13.4,3.1 0,5.1 7.2,11.3 13.4,10.3 12.3,-1 20.6,-4.1 32.9,-7.2 16.5,-4.1 21.6,-5.1 22.6,-6.2 2.1,-1 5.1,-3.1 5.1,-6.2 0,-4.1 -6.2,-7.2 -9.3,-7.2 -6.2,0 -15.4,4.1 -22.6,6.2 -8.1,3.1 -20.5,6.2 -28.7,7.2 z m 84.4,108 c -5.1,0 -2.1,18.5 -14.4,41.2 -1,2.1 -2.1,4.1 -2.1,7.2 0,5.1 1,9.3 3.1,12.3 2.1,4.1 4.1,5.1 6.2,5.1 8.2,0 17.5,-16.5 17.5,-32.9 0,-17.4 -7.3,-32.9 -10.3,-32.9 z m 37,-84.4 c -3.1,0 -6.2,3.1 -6.2,4.1 0,2.1 6.2,5.1 11.3,7.2 7.2,2.1 14.4,2.1 28.8,-1 11.3,-3.1 23.7,-6.2 32.9,-8.2 7.2,-2.1 11.3,-4.1 11.3,-7.2 0,-3.1 -7.2,-9.3 -16.5,-9.3 -4.1,0 -14.4,5.1 -26.8,8.2 -11.1,3.2 -23.5,5.2 -34.8,6.2 z m -2.1,-97.7 c -10.3,3.1 5.1,12.3 20.6,9.3 16.5,-3.1 47.3,-8.2 57.6,-9.3 9.3,-2.1 9.3,-8.2 1,-12.3 -8.2,-3.1 -15.4,-2.1 -20.6,-2.1 -5.1,1 -20.6,4.1 -31.9,8.2 -12.2,4.1 -17.4,5.2 -26.7,6.2 z m -228.4,-1 c -6.2,-2.1 -21.6,4.1 -36,10.3 -14.4,6.2 2.1,20.6 9.3,21.6 6.2,1 13.4,-3.1 30.9,-9.3 15.4,-5.1 1,-20.6 -4.2,-22.6 z m 225.4,71 c 0,3.1 3.1,7.2 7.2,9.3 4.1,2.1 7.2,1 11.3,0 17.5,-3.1 31.9,-6.2 49.4,-10.3 11.3,-3.1 15.4,-6.2 15.4,-10.3 0,-3.1 -5.1,-5.1 -16.5,-5.1 -4.1,0 -9.3,0 -15.4,2.1 -12.3,3.1 -26.8,7.2 -40.1,9.3 -6.2,0.9 -11.3,1.9 -11.3,5 z m -226.4,15.4 c -5.1,-3.1 -20.6,1 -34,6.2 -14.4,5.1 -1,22.6 6.2,22.6 6.2,2.1 14.4,1 30.9,-3.1 15.4,-4.1 2,-22.6 -3.1,-25.7 z m 181.1,-68.9 c 9.3,0 15.4,-11.3 15.4,-19.6 0,-9.3 -5.1,-18.5 -16.5,-26.8 -10.3,-8.2 -16.5,-10.3 -20.6,-10.3 -2.1,0 -3.1,1 -3.1,2.1 0,4.1 6.2,17.5 9.3,29.8 3.1,10.4 8.3,24.8 15.5,24.8 z m 230.5,-90.6 c 2.1,7.2 7.2,21.6 12.3,31.9 5.1,11.3 11.3,21.6 17.5,21.6 2.1,0 7.2,-2.1 9.3,-7.2 3.1,-7.2 3.1,-12.3 3.1,-16.5 -1,-7.2 -8.2,-14.4 -17.5,-22.6 -21.6,-14.4 -24.7,-13.4 -24.7,-7.2 z m 22.6,64.8 c -5.1,0 -12.3,2.1 -22.6,7.2 -14.4,6.2 -28.8,10.3 -42.2,12.3 -4.1,1 -8.2,2.1 -8.2,4.1 0,2.1 2.1,5.1 6.2,7.2 3.1,1 9.3,4.1 17.5,3.1 7.2,-1 46.3,-14.4 56.6,-17.5 5.1,-2.1 9.3,-4.1 9.3,-6.2 0,-3.1 -1,-6.2 -5.1,-8.2 -3.2,-2 -8.4,-2 -11.5,-2 z m -339.6,57.7 c 1,6.2 11.3,10.3 16.5,9.3 10.3,-2.1 23.7,-4.1 39.1,-7.2 13.4,-3.1 22.6,-7.2 25.7,-10.3 3.1,-2.1 6.2,-7.2 6.2,-8.2 0,-2.1 -1,-5.1 -4.1,-6.2 -4.1,-2.1 -12.3,-3.1 -34,5.1 -18.5,7.2 -30.9,12.3 -44.2,14.4 -4.1,0 -5.2,2 -5.2,3.1 z m 71,154.3 c -10.3,-11.3 -46.3,-38.1 -55.6,-38.1 0,0 -1,0 -1,1 0,2.1 1,3.1 2.1,4.1 36,48.4 50.4,65.9 59.7,65.9 3.1,0 5.1,-2.1 5.1,-4.1 0,-10.3 -4.1,-21.6 -10.3,-28.8 z m 109.1,-160.5 c 0,-8.2 -6.2,-9.3 -14.4,-9.3 -7.2,0 -8.2,3.1 -7.2,5.1 3.1,12.3 5.1,23.7 5.1,40.1 0,14.4 -1,29.8 -2.1,42.2 -1,10.3 7.2,19.6 11.3,19.6 3.1,0 5.1,-6.2 5.1,-20.6 v -52.5 c 0.2,-9.2 2.2,-18.4 2.2,-24.6 z m 8.3,-249 c -4.1,-12.3 -24.7,-15.4 -47.3,-14.4 -24.7,1 -23.7,10.3 -2.1,22.6 16.5,9.3 32.9,15.4 41.2,13.4 12.3,-4.1 10.2,-12.4 8.2,-21.6 z m -52.5,158.4 c -3.1,-2.1 -18.5,-4.1 -23.7,-4.1 -5.1,0 -7.2,1 -7.2,3.1 0,2.1 1,5.1 3.1,7.2 6.2,9.3 12.3,25.7 16.5,49.4 2.1,8.2 7.2,12.3 17.5,12.3 4.1,0 4.1,-7.2 4.1,-10.3 -2.1,-14.4 -4.1,-29.8 -4.1,-44.2 0,-8.2 -3.1,-11.3 -6.2,-13.4 z m 60.7,-53.5 c -11.3,0 -34,8.2 -79.2,15.4 -5.1,0 -8.2,2.1 -8.2,5.1 0,7.2 14.4,8.2 30.9,7.2 13.4,0 30.9,-3.1 51.5,-8.2 34,-8.2 34,-11.3 21.6,-16.5 -5.3,-2 -11.5,-2 -16.6,-3 z m -3.1,-32.9 c -11.3,1 -23.7,2.1 -38.1,6.2 -11.3,3.1 -27.8,7.2 -45.3,11.3 -3.1,0 -4.1,1 -4.1,3.1 0,4.1 11.3,7.2 27.8,7.2 8.2,0 24.7,-3.1 44.2,-6.2 20.6,-3.1 31.9,-5.1 35,-6.2 7.2,-4.1 8.2,-9.3 -3.1,-13.4 -5.1,-2 -9.2,-3 -16.4,-2 z m -74.1,166.7 c -4.1,1 -8.2,2.1 -8.2,4.1 0,4.1 9.3,10.3 15.4,10.3 16.5,0 32.9,-3.1 49.4,-5.1 13.4,-2.1 27.8,-5.1 39.1,-8.2 11.3,-3.1 18.5,-7.2 9.3,-12.3 -5.1,-3.1 -11.3,-6.2 -17.5,-6.2 -3.1,0 -11.3,2.1 -15.4,3.1 -17.6,5 -40.2,10.2 -72.1,14.3 z m 212,62.8 c -16.5,6.2 -35,10.3 -53.5,14.4 -13.4,3.1 -26.8,5.1 -41.2,6.2 -6.2,1 -9.3,2.1 -9.3,5.1 0,1 2.1,3.1 5.1,6.2 7.2,6.2 14.4,6.2 20.6,5.1 9.3,-2.1 22.6,-4.1 44.2,-9.3 25.7,-5.1 38.1,-9.3 53.5,-10.3 9.3,0 15.4,-4.1 15.4,-8.2 0,-1 -1,-3.1 -5.1,-6.2 -6.2,-5.1 -12.3,-8.2 -17.5,-8.2 -2.9,0 -9.1,4.1 -12.2,5.2 z m -331.4,-47.4 c -6.2,-2.1 -11.3,-4.1 -16.5,-4.1 -5.1,0 -11.3,3.1 -11.3,6.2 0,2.1 1,2.1 2.1,3.1 8.2,16.5 14.4,40.1 17.5,90.6 0,1 1,12.3 8.2,12.3 6.2,0 13.4,-7.2 12.3,-14.4 -2.1,-21.6 -3.1,-39.1 -4.1,-58.7 0,-11.3 0,-19.6 1,-23.7 1,-4.1 -0.9,-8.2 -9.2,-11.3 z m 277.9,-12.3 c 0,-5.1 -1,-11.3 -1,-16.5 0,-3.1 -9.3,-9.3 -23.7,-9.3 -7.2,0 -12.3,2.1 -12.3,4.1 0,4.1 2.1,5.1 4.1,9.3 8.2,21.6 15.4,54.5 17.5,86.4 0,7.2 2.1,12.3 6.2,12.3 8.2,0 14.4,-7.2 13.4,-15.4 -3.2,-23.6 -4.2,-46.2 -4.2,-70.9 z m -149.2,-82.3 h -3.1 c -3.1,0 -5.1,1 -5.1,3.1 0,3.1 6.2,8.2 17.5,6.2 l 38.1,-8.2 c 5.1,0 7.2,2.1 7.2,7.2 0,8.2 -1,18.5 -2.1,27.8 -1,6.2 6.2,9.3 11.3,9.3 6.2,0 9.3,-4.1 11.3,-11.3 4.1,-13.4 11.3,-24.7 16.5,-29.8 3.1,-3.1 6.2,-3.1 6.2,-6.2 0,-7.2 -25.7,-18.5 -37,-18.5 -4.1,0 -8.2,1 -11.3,4.1 -9.4,7 -24.8,13.2 -49.5,16.3 z m 78.2,349.8 c -1,-11.3 -10.3,-21.6 -17.5,-23.7 -10.3,-3.1 -27.8,-8.2 -48.4,-10.3 -11.3,-1 -17.5,-1 -19.6,1 -1,2.1 1,6.2 6.2,11.3 15.4,14.4 31.9,27.8 49.4,38.1 9.3,5.1 15.4,6.2 21.6,5.1 6.2,-1.9 9.3,-9.1 8.3,-21.5 z m -77.2,-263.4 c 0,-8.2 -12.3,-11.3 -20.6,-11.3 -6.2,0 -9.3,2.1 -9.3,4.1 0,1 1,4.1 3.1,8.2 2.1,3.1 4.1,18.5 4.1,40.1 0,18.5 -1,40.1 -3.1,57.6 -1,9.3 2.1,15.4 4.1,18.5 2.1,4.1 9.3,8.2 12.3,8.2 5.1,0 5.1,-6.2 5.1,-21.6 l 1,-81.3 c 0.2,-9.1 3.3,-16.3 3.3,-22.5 z m 274.7,155.4 c -12.3,-2.1 -22.6,-3.1 -34,-7.2 -12.3,-4.1 -26.8,-16.5 -39.1,-28.8 -14.4,-14.4 -26.8,-25.7 -37,-37 -3.1,-3.1 -5.1,-5.1 -9.3,-5.1 -4.1,0 -5.1,1 -5.1,3.1 0,1 2.1,3.1 4.1,5.1 23.7,28.8 40.1,56.6 67.9,88.5 4.1,4.1 10.3,5.1 15.4,4.1 9.3,-1 21.6,-3.1 27.8,-5.1 15.4,-4.1 19.6,-7.2 19.6,-10.3 0,-4.2 -4.1,-6.3 -10.3,-7.3 z m -336.4,-67.9 c -10.3,3.1 -42.2,9.3 -67.9,13.4 -16.5,3.1 -28.8,4.1 -35,4.1 -5.1,0 -10.3,0 -10.3,5.1 0,3.1 1,4.1 8.2,11.3 6.2,6.2 10.3,9.3 15.4,9.3 3.1,0 13.4,-4.1 19.6,-6.2 21.6,-5.1 62.8,-14.4 90.6,-20.6 6.2,-1 9.3,-7.2 9.3,-10.3 0,-5.1 -5.1,-8.2 -14.4,-8.2 -4.2,0 -10.4,1 -15.5,2.1 z m -24.7,72 c -4.1,0 -29.8,13.4 -41.2,22.6 2.1,-13.4 5.1,-27.8 7.2,-36 2.1,-6.2 6.2,-10.3 -2.1,-16.5 -4.1,-4.1 -12.3,-7.2 -18.5,-7.2 -5.1,0 -7.2,3.1 -5.1,7.2 2.1,4.1 3.1,8.2 3.1,16.5 -1,25.7 -5.1,38.1 -12.3,45.3 -4.1,4.1 -6.2,7.2 -6.2,9.3 0,5.1 3.1,7.2 6.2,14.4 5.1,5.1 8.2,7.2 10.3,7.2 4.1,0 7.2,-1 9.3,-4.1 9.3,-11.3 24.7,-28.8 48.4,-47.3 3.1,-2.1 4.1,-4.1 4.1,-7.2 0,-3.1 -1.2,-4.2 -3.2,-4.2 z m 169.8,-377.7 c -5.1,0 -20.6,2.1 -45.3,9.3 -25.7,7.2 -50.4,12.3 -76.1,14.4 -8.2,1 -14.4,4.1 -14.4,8.2 0,3.1 5.1,6.2 11.3,7.2 6.2,2.1 12.3,4.1 18.5,4.1 5.1,0 15.4,-2.1 29.8,-6.2 15.4,-4.1 29.8,-6.2 53.5,-10.3 21.6,-4.1 34,-4.1 41.2,-5.1 6.2,0 11.3,-2.1 11.3,-6.2 0,-5.1 -5.1,-7.2 -11.3,-10.3 -5.2,-2 -11.3,-5.1 -18.5,-5.1 z m 186.2,483.7 c -1,-9.3 -2.1,-15.4 -5.1,-20.6 -3.1,-6.2 -7.2,-10.3 -12.3,-11.3 -11.3,-5.1 -28.8,-11.3 -57.6,-15.4 -17.5,-2.1 -21.6,2.1 -11.3,12.3 8.2,9.3 16.5,18.5 24.7,25.7 10.3,9.3 19.6,16.5 28.8,21.6 20.5,15.5 35.9,8.3 32.8,-12.3 z m -391,-22.7 c -3.1,-9.3 -8.2,-14.4 -11.3,-14.4 -4.1,0 -8.2,4.1 -10.3,12.3 -3.1,13.4 -12.3,28.8 -22.6,38.1 -12.3,11.3 -14.4,20.6 -11.3,39.1 4.1,19.6 20.6,22.6 34,6.2 16.5,-18.5 23.7,-37 23.7,-61.7 -0.2,-6.2 0.9,-12.4 -2.2,-19.6 z m 309.7,-109 c -2.1,0 -8.2,3.1 -19.6,10.3 -11.3,7.2 -22.6,15.4 -27.8,20.6 4.1,-23.7 6.2,-40.1 7.2,-55.6 0,-4.1 3.1,-9.3 3.1,-12.3 0,-1 0,-3.1 -3.1,-5.1 -3.1,-3.1 -12.3,-6.2 -17.5,-6.2 -4.1,0 -9.3,2.1 -8.2,5.1 2.1,3.1 3.1,6.2 3.1,9.3 l 1,21.6 c 1,26.8 -3.1,47.3 -11.3,53.5 -6.2,5.1 -8.2,9.3 -8.2,13.4 0,5.1 3.1,9.3 8.2,18.5 5.1,7.2 9.3,10.3 11.3,10.3 4.1,0 6.2,-2.1 7.2,-6.2 9.3,-18.5 26.8,-40.1 53.5,-63.8 3.1,-3.1 5.1,-6.2 6.2,-9.3 0.1,-3.1 -2,-4.1 -5.1,-4.1 z m 3.1,-278.9 c 0,-5.1 -5.1,-7.2 -10.3,-7.2 l -45.3,-1 c 22.6,-29.8 39.1,-45.3 45.3,-50.4 11.3,-9.3 12.3,-18.5 -3.1,-30.9 -15.4,-12.3 -22.6,-13.4 -22.6,-3.1 0,16.5 -3.1,27.8 -12.3,44.2 -8.2,14.4 -12.3,23.7 -16.5,27.8 -5.1,5.1 -11.3,8.2 -18.5,10.3 -6.2,1 -9.3,3.1 -9.3,6.2 0,5.1 3.1,10.3 10.3,16.5 6.2,7.2 9.3,11.3 12.3,11.3 3,0 6.2,-1 9.3,-3.1 9.3,-6.2 24.7,-11.3 49.4,-13.4 6.2,-1 11.3,-3.1 11.3,-7.2 z m -267.5,42.2 c 13.4,-3.1 18.5,-4.1 18.5,-8.2 0,-2.1 -3.1,-3.1 -11.3,-3.1 -16.5,2.1 -39.1,0 -52.5,-1 27.8,-39.1 45.3,-58.7 50.4,-61.7 6.2,-4.1 9.3,-7.2 9.3,-11.3 0,-11.3 -22.6,-26.8 -29.8,-26.8 -5.1,0 -8.2,2.1 -8.2,7.2 1,15.4 1,29.8 -14.4,53.5 -10.3,16.5 -24.7,30.9 -37,38.1 -4.1,2.1 -6.2,4.1 -6.2,6.2 0,6.2 13.4,23.7 20.6,23.7 3.1,0 8.2,-2.1 11.3,-2.1 19.4,-7.3 36.9,-12.4 49.3,-14.5 z m 161.5,-213 c -7.2,0 -10.3,2.1 -10.3,6.2 0,4.1 16.5,16.5 48.4,36 31.9,20.6 53.5,30.9 62.8,30.9 9.3,0 13.4,-5.1 13.4,-15.4 -0.1,-37.1 -43.3,-57.7 -114.3,-57.7 z m -165.7,208.9 c -16.5,22.6 -42.2,57.6 -68.9,70 -12.3,5.1 -12.3,9.3 -1,22.6 9.3,11.3 13.4,10.3 20.6,6.2 21.6,-12.3 47.3,-26.8 74.1,-36 6.2,-2.1 9.3,-3.1 9.3,-5.1 0,-5.1 -4.1,-6.2 -11.3,-4.1 -14.4,3.1 -31.9,6.2 -53.5,8.2 41.2,-45.3 64.8,-68.9 73.1,-74.1 3.1,-2.1 4.1,-5.1 4.1,-7.2 0,-8.2 -22.6,-25.7 -26.8,-25.7 -6.2,0 -6.2,10.3 -8.2,22.6 -1.2,8.2 -7.3,16.4 -11.5,22.6 z m 286.1,27.8 c 7.2,-2.1 7.2,-7.2 6.2,-10.3 -2.1,-3.1 -8.2,-2.1 -12.3,-1 -13.4,3.1 -36,7.2 -57.6,10.3 42.2,-49.4 70,-75.1 74.1,-77.2 5.1,-3.1 7.2,-5.1 7.2,-8.2 0,-3.1 -3.1,-8.2 -10.3,-15.4 -6.2,-6.2 -15.4,-12.3 -19.6,-11.3 -4.1,1 -1,8.2 -3.1,16.5 -2.1,7.2 -7.2,15.4 -13.4,26.8 -17.5,29.8 -38.1,54.5 -67.9,72 -5.1,3.1 -9.3,5.1 -9.3,9.3 0,8.2 8.2,25.7 16.5,25.7 5.1,-0.2 36,-22.8 89.5,-37.2 z m -221.2,-337.599987 c 19.6,35.999997 42.2,64.799987 62.8,64.799987 18.5,0 24.7,-8.2 24.7,-31.89999 0,-33.999997 -41.2,-49.399997 -70,-55.599997 -13.4,-3.1 -21.6,-3.1 -24.7,-1 -3.1,3.2 -1.1,8.3 7.2,23.7 z m -177,216.099987 c 0,4.1 10.3,6.2 52.5,-7.2 23.7,-11.3 47.3,-18.5 68.9,-29.8 l 36,-20.6 c 2.1,0 3.1,-2.1 3.1,-6.2 0,-3.1 -6.2,-10.3 -18.5,-21.6 -25.7,-23.7 -31.9,-20.6 -32.9,-9.3 -1,16.5 -32.9,44.2 -97.8,83.4 -7.2,5.2 -11.3,9.3 -11.3,11.3 z m 177,306.7 c 0,4.1 12.3,11.3 16.5,10.3 13.4,-4.1 28.8,-8.2 41.2,-10.3 10.3,-2.1 18.5,-3.1 21.6,-3.1 12.3,0 13.4,3.1 13.4,12.3 -1,22.6 -4.1,43.2 -16.5,68.9 -2.1,4.1 -10.3,4.1 -24.7,-1 -7.2,-3.1 -12.3,-5.1 -13.4,-5.1 -2.1,0 -4.1,1 -4.1,3.1 0,2.1 3.1,5.1 4.1,6.2 10.3,11.3 19.6,22.6 21.6,34 1,5.1 3.1,7.2 7.2,7.2 13.4,0 35,-14.4 47.3,-87.5 2.1,-12.3 3.1,-20.6 6.2,-25.7 4.1,-6.2 6.2,-10.3 6.2,-13.4 0,-3.1 -1,-4.1 -10.3,-12.3 -8.2,-6.2 -15.4,-9.3 -20.6,-9.3 -3.1,0 -6.2,2.1 -11.3,3.1 l -30.9,8.2 c -13.4,4.1 -27.8,8.2 -41.2,9.3 -4.1,-0.1 -12.3,2 -12.3,5.1 z m -160.6,-414.7 c 0,-3.1 -1,-7.2 -2.1,-11.3 -9.3,-23.7 -15.4,-31.9 -19.6,-31.9 -3.1,0 -5.1,4.1 -7.2,11.3 -11.3,29.8 -25.7,56.6 -43.2,78.2 -5.1,7.2 -8.2,16.5 -9.3,27.8 0,29.8 6.2,45.3 18.5,45.3 9.3,0 20.6,-13.4 34,-40.1 20.7,-40.2 28.9,-65.9 28.9,-79.3 z m 467.2,219.2 c 2.1,-5.1 3.1,-9.3 5.1,-16.5 1,-5.1 -1,-8.2 -3.1,-10.3 -4.1,-6.2 -16.5,-14.4 -23.7,-17.5 -31.9,-10.3 -34,-3.1 -24.7,15.4 7.2,14.4 10.3,36 12.3,78.2 1,18.5 0,35 -2.1,48.4 -1,11.3 -3.1,21.6 -6.2,30.9 -4.1,13.4 -1,30.9 8.2,50.4 8.2,17.5 17.5,17.5 23.7,1 3.1,-7.2 3.1,-15.4 4.1,-23.7 1,-9.3 2.1,-19.6 2.1,-35 -2.9,-75 -0.8,-109 4.3,-121.3 z m -535.1,-34 c 0,-4.1 -1,-10.3 -14.4,-16.5 -12.3,-6.2 -21.6,-7.2 -26.8,-7.2 -12.3,0 -12.3,8.2 -5.1,21.6 9.3,23.7 12.3,78.2 9.3,146.1 -3.1,50.4 -8.2,92.6 -14.4,125.5 -6.2,35 -13.4,60.7 -25.7,91.6 -7.2,17.5 -8.2,25.7 -4.1,25.7 3.1,0 9.3,-5.1 15.4,-14.4 27.8,-41.2 37,-79.2 47.3,-119.4 4.1,-19.6 8.2,-37 9.3,-56.6 l 2.1,-21.6 c 1,-16.5 0,-36 3.1,-59.7 v -22.6 c 1,-15.4 1,-39.1 1,-55.6 -0.1,-16.3 3,-31.7 3,-36.9 z m 478.5,449.7 c -14.4,-5.1 -23.7,-12.3 -37,-20.6 -15.4,-11.3 -29.8,-23.7 -46.3,-41.2 -12.3,-12.3 -19.6,-10.3 -12.3,6.2 6.2,13.4 13.4,31.9 21.6,48.4 1,11.3 -5.1,14.4 -18.5,15.4 -57.6,8.2 -106,1 -136.9,-11.3 -34,-13.4 -50.4,-23.7 -67.9,-50.4 -6.2,-9.3 -14.4,-18.5 -23.7,-24.7 -7.2,-5.1 -14.4,0 -8.2,14.4 6.2,15.4 18.5,36 27.8,48.4 35,42.2 98.8,61.7 157.4,63.8 45.3,1 98.8,-2.1 139.9,-18.5 22.6,-8.3 22.6,-21.7 4.1,-29.9 z m -402.3,-440.4 c 1,-3.1 3.1,-8.2 4.1,-12.3 1,-1 1,-4.1 0,-8.2 -3.1,-5.1 -6.2,-11.3 -18.5,-18.5 -15.4,-9.3 -21.6,-10.3 -29.8,-3.1 -7.2,5.1 -12.3,9.3 -19.6,12.3 -11.3,3.1 -17.5,2.1 -32.9,7.2 -4.1,1 -7.2,6.2 -7.2,10.3 0,6.2 5.1,10.3 19.6,7.2 9.3,-3.1 17.5,-3.1 26.8,-6.2 9.3,-3.1 16.5,1 16.5,20.6 l 1,68.9 v 70 c 0,48.4 0,103.9 -2.1,136.9 0,8.2 -3.1,19.6 -8.2,23.7 -3.1,2.1 -7.2,2.1 -10.3,2.1 -5.1,0 -11.3,-2.1 -16.5,-3.1 -21.6,-7.2 -27.8,1 -4.1,18.5 16.5,12.3 25.7,22.6 29.8,42.2 4.1,16.5 20.6,15.4 30.9,-5.1 10.3,-19.6 12.3,-30.9 12.3,-55.6 v -26.8 c -1,-13.4 -1,-44.2 -1,-72 0,-28.8 -2.1,-57.6 -2.1,-85.4 0,-27.8 2.1,-56.6 2.1,-72 0,-10.3 1,-20.6 3.1,-30.9 0.9,-7.3 3,-14.6 6.1,-20.7 z m 17.5,-183.2 c 8.2,0 20.6,-3.1 29.8,-4.1 89.5,-11.3 142,-17.5 215.1,-23.7 78.2,-6.2 121.4,-10.3 134.8,-10.3 13.4,1 19.6,4.1 19.6,9.3 0,5.1 -7.2,21.6 -21.6,47.3 -3.1,7.2 -5.1,11.3 -5.1,14.4 0,4.1 1,6.2 3.1,6.2 3.1,0 11.3,-4.1 26.8,-11.3 13.4,-8.2 26.8,-13.4 40.1,-16.5 15.4,-4.1 26.8,-5.1 40.1,-5.1 15.4,-1 22.6,-5.1 22.6,-13.4 0,-10.3 -11.3,-24.7 -35,-44.2 -23.7,-19.6 -42.2,-28.79999 -57.6,-28.79999 -5.1,0 -12.3,2.1 -22.6,6.2 -16.5,5.09999 -120.4,14.39999 -192.4,24.69999 -65.9,10.3 -126.6,16.5 -197.6,21.6 -9.3,1 -25.7,-2.1 -38.1,1 -11.3,3.1 3.1,12.3 6.2,15.4 11.2,7.2 21.5,11.3 31.8,11.3 z m 507.3,129.7 c 3.1,-5.1 6.2,-10.3 6.2,-15.4 0,-20.6 -44.2,-39.1 -56.6,-39.1 -12.3,0 -17.5,10.3 -7.2,27.8 6.2,10.3 9.3,21.6 10.3,32.9 6.2,74.1 8.2,147.1 8.2,221.2 0,48.4 0,79.2 -2.1,113.2 0,8.2 -4.1,18.5 -10.3,23.7 -6.2,5.1 -16.5,2.1 -32.9,-3.1 -14.4,-5.1 -21.6,-6.2 -21.6,-1 0,3.1 3.1,9.3 10.3,16.5 17.5,17.5 27.8,34 38.1,56.6 4.1,11.3 8.2,16.5 14.4,16.5 5.1,0 11.3,-5.1 19.6,-13.4 20.6,-23.7 24.7,-48.4 20.6,-86.4 -2.1,-17.5 -2.1,-38.1 -2.1,-61.7 0,-24.7 -1,-54.5 -1,-91.6 v -139.1 c -0.1,-31.9 2,-48.4 6.1,-57.6 z"
   id="path831"
   sodipodi:nodetypes="cccccscccccscscscscscscssccsccscsccssccscccsccccccsccssccsscccsscsscscssscscccssccccccccccscccssccssccsscccssscsscsccsccccsccscccscsccccsccccccscsscsscscsscscccccsssccscssccscccccccsscccccsscscscccccsccccscsccssccsccscssssccscscssccscsccssccccccccccssscsccsccsccscssccccscccssssccsscscccsscsscsccsssccscscccscscccccccccsccccccscccscsccccscscccssccccscccscsccscscccsscccssccsscscscccscscccsscccccccssccccscccsscccscccscccssccscccssccsccscscccsscscccscscccccccccccccscsccccscccccccscccccccccccccccccccccscsccsccsccccscsssccscccscsscccscscccccscssccscccsscsccsscc" />
<path
   id="Elekto"
   fill="none"
   stroke="#000000"
   stroke-width="4.84491"
   d="m 105.39348,240.36587 c 10.71716,-4.05078 27.84712,-0.0924 39.04414,1.89446 32.03508,5.65258 67.06574,19.09862 78.3936,55.06262 3.19915,10.16542 3.05375,17.29662 3.0392,27.72384 -0.0133,9.76497 -0.95975,25.92182 -11.66233,29.52593 -7.03812,2.37188 -20.18372,-5.06731 -26.14578,-8.90245 -21.14342,-13.64631 -52.93131,-47.99308 -69.15969,-68.37008 -4.91506,-6.16086 -19.064031,-23.8733 -16.9555,-32.25207 0.74163,-2.95722 1.67229,-2.95722 3.44636,-4.68225 z m 98.66458,543.66455 c 0,0 -7.28532,-20.02276 -7.28532,-20.02276 0,0 -17.88613,-40.04557 -17.88613,-40.04557 -12.12768,-23.38043 -24.38625,-34.88584 -29.18493,-63.14874 -5.33677,-31.34335 4.56601,-62.65589 4.91501,-93.95302 0,0 0,-6.16087 0,-6.16087 -0.23267,-18.15909 -8.20141,-21.20872 -23.2665,-15.61779 -14.77422,5.49857 -37.400945,22.70279 -49.44134,23.25725 -13.145602,0.6161 -27.120029,-5.57557 -37.779017,-13.41527 -3.91169,-2.8648 -10.52807,-7.96291 -6.369219,-13.60005 2.893777,-3.91215 13.349183,-5.79121 17.973411,-6.80776 13.523637,-2.95722 26.218449,-6.17626 39.262216,-11.12037 16.591959,-6.28407 27.963489,-11.567 42.170589,-22.96456 13.53821,-10.87392 19.2094,-22.65652 37.80811,-24.16593 11.88041,-0.95494 35.14697,7.62401 46.533,12.35248 8.91399,3.71192 31.2353,12.1369 33.51833,22.79514 1.10515,5.14432 -2.67567,9.91899 -6.03477,13.07643 -8.33227,7.7935 -17.97336,13.60012 -25.62225,22.41011 -15.42859,17.77408 -30.11558,40.16876 -33.63465,64.62735 0,0 0,23.10324 0,23.10324 0.11632,29.98794 12.5494,48.03922 21.09986,73.9302 7.24166,21.97888 10.65892,52.19787 10.67348,75.47049 0,0 43.62474,6.85394 43.62474,6.85394 48.99053,10.38102 97.10863,26.09122 145.41572,39.5373 77.15761,21.47057 170.54359,45.03582 250.11506,46.02156 0,0 21.81235,1.54021 21.81235,1.54021 0,0 72.70789,0 72.70789,0 0,0 26.17481,-1.54021 26.17481,-1.54021 0,0 15.99572,-1.40159 15.99572,-1.40159 0,0 46.53306,-3.4809 46.53306,-3.4809 0,0 52.34963,-6.13007 52.34963,-6.13007 12.25857,-1.55556 19.60208,-3.66565 31.99147,-1.30911 -5.23497,11.1665 -22.99022,19.48367 -33.44562,25.02844 -29.1704,15.47912 -59.57682,29.20245 -90.15775,41.27769 -32.5295,12.8454 -65.5825,23.67312 -100.33683,26.24529 0,0 -17.4499,1.38618 -17.4499,1.38618 0,0 -13.0874,-1.38618 -13.0874,-1.38618 C 607.26681,951.83668 537.24913,921.71011 475.98548,894.9412 421.949,871.3297 326.78895,834.85744 270.94931,820.81072 c -28.61781,-7.19282 -56.29046,-11.12037 -84.34116,0.87792 0,0 -42.17053,22.07124 -42.17053,22.07124 -11.29882,6.3611 -20.09649,11.98288 -33.44563,12.59897 -14.730634,0.67769 -28.210649,-5.86822 -40.716416,-13.61551 -4.711476,-2.91101 -11.793187,-8.19395 -13.320055,-14.04672 -3.548149,-13.64631 24.517084,-13.81573 32.224132,-14.9863 27.250899,-4.11237 49.310459,-11.13576 75.616149,-18.66736 0,0 39.26226,-11.01254 39.26226,-11.01254 z"
   style="fill:#000000;fill-opacity:1;stroke-width:0.966818;stroke-miterlimit:4;stroke-dasharray:none" /></svg>
